<?xml version="1.0" encoding="utf-8"?>
<!-- Generator: Adobe Illustrator 17.1.0, SVG Export Plug-In . SVG Version: 6.00 Build 0)  -->
<!DOCTYPE svg PUBLIC "-//W3C//DTD SVG 1.1//EN" "http://www.w3.org/Graphics/SVG/1.1/DTD/svg11.dtd">
<svg version="1.1" xmlns="http://www.w3.org/2000/svg" xmlns:xlink="http://www.w3.org/1999/xlink" x="0px" y="0px"
	 viewBox="0 0 1440 810" enable-background="new 0 0 1440 810" xml:space="preserve">
<g id="Livello_72">
	<polyline fill="#072F40" points="241.5,522.8 254,533.3 256.2,544.5 276,544.5 302.6,544.9 325.8,543.8 346.2,543.8 368.6,544.1 
		381.5,544.1 415.1,543.1 464,543 489.1,542.7 503.8,542.7 534,542.1 546.8,541.5 566.4,541.5 562.2,533.5 545.3,524.3 538.5,514.1 
		515,494.5 496.5,498.8 469.4,490.1 449.6,498.8 437.6,505.7 417.9,521.4 381.7,526.6 369.8,531 353.9,529.5 325.2,533.8 
		282.8,529.5 270.8,529.1 260.3,526.1 251.2,521.3 241.5,522.8 	"/>
</g>
<g id="Livello_73">
	<polygon fill="#133E3F" points="325.2,533.8 326.3,534.6 353.8,529.5 	"/>
</g>
<g id="Left_1_">
	<g id="Livello_55">
		<polygon fill="#042231" points="241.5,522.8 251.2,521.3 254,533.3 		"/>
	</g>
	<g id="Livello_56">
		<polygon fill="#032738" points="258,525 254,533.3 251.3,521.3 		"/>
		<path fill="#032738" d="M259.8,510.8"/>
	</g>
	<g id="Livello_57">
		<polygon fill="#032738" points="258,525 260.3,526.1 254,533.3 		"/>
	</g>
	<g id="Livello_58">
		<polygon fill="#052533" points="254,533.3 260.3,526.1 256.2,544.5 		"/>
	</g>
	<g id="Livello_59">
		<polygon fill="#062939" points="256.2,544.5 260.3,526.1 270.8,529.1 		"/>
	</g>
	<g id="Livello_60">
		<polygon fill="#042636" points="256.2,544.5 267.2,532.9 276,544.5 		"/>
	</g>
	<g id="Livello_61">
		<polygon fill="#062A3A" points="267.2,532.9 270.8,529.1 276,544.5 		"/>
	</g>
	<g id="Livello_62">
		<polygon fill="#062E3D" points="270.8,529.1 277.1,529.1 276,544.5 		"/>
	</g>
	<g id="Livello_63">
		<polygon fill="#052E3C" points="277.1,529.1 282.8,529.5 276,544.5 		"/>
	</g>
</g>
<g id="Left_1_1_">
	<g id="Livello_64">
		<polygon fill="#082E39" points="276,544.5 280.5,534.4 302.6,544.9 		"/>
	</g>
	<g id="Livello_65">
		<polygon fill="#17453D" points="280.5,534.4 314,535.5 302.6,544.9 		"/>
	</g>
	<g id="Livello_66">
		<polygon fill="#07313C" points="280.5,534.4 282.8,529.5 314,535.5 		"/>
	</g>
	<g id="Livello_67">
		<polygon fill="#092F3F" points="302.6,533.3 314,535.5 353.9,529.5 		"/>
	</g>
	<g id="Livello_68">
		<polygon fill="#133E3F" points="302.6,544.9 314,535.5 325.8,543.8 		"/>
	</g>
	<g id="Livello_69">
		<polygon fill="#052D3C" points="314,535.5 326.3,534.4 321.9,541 		"/>
	</g>
	<g id="Livello_70">
		<polygon fill="#123A42" points="321.9,541 326.3,534.4 325.8,543.8 		"/>
	</g>
	<g id="Livello_18_xA0_Immagine_1_">
		<polygon fill="#0F3840" points="326.3,534.6 331.8,536.8 325.8,543.8 		"/>
	</g>
	<g id="Livello_19_xA0_Immagine_1_">
		<polygon fill="#072D3A" points="325.8,543.8 331.8,536.8 346.2,543.8 		"/>
	</g>
	<g id="Livello_20_xA0_Immagine_1_">
		<polygon fill="#082E3D" points="331.8,536.8 337.3,532.2 346.2,543.8 		"/>
	</g>
</g>
<g id="Center_1_">
	<g id="Livello_21_xA0_Immagine_1_">
		<polygon fill="#092F3F" points="337.3,532.2 353.9,529.5 369.8,531 		"/>
	</g>
	<g id="Livello_22_xA0_Immagine_1_">
		<polygon fill="#0D323C" points="337.3,532.2 346.2,543.8 368.4,544.1 		"/>
	</g>
	<g id="Livello_23_xA0_Immagine_1_">
		<polygon fill="#0E363E" points="337.3,532.2 369.8,531 368.6,544.1 		"/>
	</g>
	<g id="Livello_24_xA0_Immagine_1_">
		<polygon fill="#103A3E" points="368.6,544.1 369.8,531 381.5,544.1 		"/>
	</g>
	<g id="Livello_25_xA0_Immagine_1_">
		<polygon fill="#09323D" points="369.8,531 381.7,526.6 381.5,544.1 		"/>
	</g>
	<g id="Livello_26_xA0_Immagine_1_">
		<polygon fill="#09343F" points="381.5,544.1 381.7,526.6 417.9,521.4 		"/>
	</g>
	<g id="Livello_27_xA0_Immagine_1_">
		<polyline fill="#103A45" points="402.4,531 433.5,530.6 415.1,543.1 402.9,531.8 		"/>
	</g>
	<g id="Livello_28_xA0_Immagine_1_">
		<polygon fill="#072F40" points="402.4,531 417.9,521.4 433.5,530.6 		"/>
	</g>
	<g id="Livello_29_xA0_Immagine_1_">
		<polygon fill="#062D40" points="417.9,521.4 433.9,508.4 433.5,530.4 		"/>
	</g>
</g>
<g id="High_Mountain_1_">
	<g id="Livello_30_xA0_Immagine_1_">
		<polygon fill="#072D40" points="433.5,530.6 433.9,508.4 437.6,505.7 		"/>
	</g>
	<g id="Livello_31_xA0_Immagine_1_">
		<polygon fill="#052B3E" points="449.6,498.8 437.6,505.7 433.5,530.4 		"/>
	</g>
	<g id="Livello_32_xA0_Immagine_1_">
		<polyline fill="#03293C" points="433.5,530.4 449.6,498.8 469.4,490.1 434.3,529.5 		"/>
	</g>
	<g id="Livello_33_xA0_Immagine_1_">
		<polygon fill="#042B3E" points="496.5,498.8 469.4,490.1 433.5,530.4 		"/>
	</g>
	<g id="Livello_34_xA0_Immagine_1_">
		<polygon fill="#053044" points="433.5,530.4 496.5,498.8 515,494.5 		"/>
	</g>
	<g id="Livello_35_xA0_Immagine_1_">
		<polygon fill="#063649" points="433.5,530.4 515,494.5 524.4,519.6 		"/>
	</g>
	<g id="Livello_36_xA0_Immagine_1_">
		<polygon fill="#08384B" points="484.4,524.4 524.4,519.6 531.9,529.2 		"/>
	</g>
	<g id="Livello_37_xA0_Immagine_1_">
		<polygon fill="#0A384B" points="534,542.1 531.9,529.2 484.4,524.4 		"/>
	</g>
	<g id="Livello_38_xA0_Immagine_1_">
		<polygon fill="#083549" points="484.4,524.4 534,542.1 503.8,542.7 		"/>
	</g>
	<g id="Livello_39_xA0_Immagine_1_">
		<polygon fill="#073347" points="484.4,524.4 489.1,542.7 503.8,542.7 		"/>
	</g>
</g>
<g id="Right_1_">
	<g id="Livello_40_xA0_Immagine_1_">
		<polygon fill="#0A3647" points="464,543 484.4,524.4 489.1,542.7 		"/>
	</g>
	<g id="Livello_41_xA0_Immagine_1_">
		<polygon fill="#0C394A" points="433.5,530.4 484.4,524.4 464,543 		"/>
	</g>
	<g id="Livello_42_xA0_Immagine_1_">
		<polygon fill="#0B3748" points="415.1,543.1 433.5,530.4 464,543 		"/>
	</g>
	<g id="Livello_43_xA0_Immagine_1_">
		<polygon fill="#05364A" points="515,494.5 524.4,519.6 538.5,514.1 		"/>
	</g>
	<g id="Livello_44_xA0_Immagine_1_">
		<polygon fill="#07384C" points="524.4,519.6 538.5,514.1 545.3,524.3 		"/>
	</g>
	<g id="Livello_45_xA0_Immagine_1_">
		<polygon fill="#07384C" points="524.4,519.6 531.9,529.2 545.3,524.3 		"/>
	</g>
	<g id="Livello_46_xA0_Immagine_1_">
		<polygon fill="#0D3F51" points="531.9,529.2 545.3,524.3 546.8,541.5 		"/>
	</g>
	<g id="Livello_47_xA0_Immagine_1_">
		<polygon fill="#0E4052" points="534,542.1 531.9,529.2 546.8,541.5 		"/>
	</g>
	<g id="Livello_48_xA0_Immagine_1_">
		<polygon fill="#104456" points="562.2,533.6 545.3,524.3 546.8,541.5 		"/>
	</g>
	<g id="Livello_49_xA0_Immagine_1_">
		<polygon fill="#13485A" points="546.8,541.5 562.2,533.5 566.4,541.5 		"/>
	</g>
</g>
<g id="Livello_50_xA0_Immagine_1_">
	<polygon fill="#103943" points="381.5,544.1 402.4,531 415.1,543.1 	"/>
</g>
<g id="Livello_71">
	<polygon fill="#082E3D" points="326.3,534.6 331.8,536.8 337.3,532.2 	"/>
	<polygon fill="#082E3D" points="314,535.5 325.2,533.8 326.3,534.4 	"/>
</g>
</svg>
