<?xml version="1.0" encoding="utf-8"?>
<!-- Generator: Adobe Illustrator 17.1.0, SVG Export Plug-In . SVG Version: 6.00 Build 0)  -->
<!DOCTYPE svg PUBLIC "-//W3C//DTD SVG 1.1//EN" "http://www.w3.org/Graphics/SVG/1.1/DTD/svg11.dtd">
<svg version="1.1" xmlns="http://www.w3.org/2000/svg" xmlns:xlink="http://www.w3.org/1999/xlink" x="0px" y="0px"
	 viewBox="0 0 1440 810" enable-background="new 0 0 1440 810" xml:space="preserve">
<g id="Livello_100">
	<polygon fill="#052335" points="736.5,541.5 777,541.5 809.5,541.5 846.8,541 900.8,541.5 925,540.4 951.9,540.8 977.3,541 
		980.6,539.5 1128.8,540 1219.1,542.4 1397.5,539.3 1440,538.4 1440,464 1374.1,483.9 1356.1,483.6 1315.8,489.8 1295.1,501.5 
		1273.6,501.5 1259.3,493.5 1237.8,489.4 1157.3,491.6 1133.1,492.8 1116,498.9 1101.8,498.9 1091.6,497.1 1069.8,500.5 1030.1,497 
		985.9,478.3 950.9,446.3 932.5,444.1 906.9,452.5 893.3,472.1 887.3,477 880.3,485.4 875.2,492.4 864.8,504 830.3,509.3 
		795.5,519.8 791.2,522.1 768.8,525 	"/>
</g>
<g id="Left_1_">
	<g id="Livello_2_xA0_Immagine_1_">
		<polyline fill="#062B39" points="736.5,541.5 768.8,525 773.3,531.8 736.5,541.5 		"/>
	</g>
	<g id="Livello_3_xA0_Immagine_1_">
		<polygon fill="#082939" points="736.5,541.5 773.3,531.8 777,541.5 		"/>
	</g>
	<g id="Livello_4_xA0_Immagine_1_">
		<polygon fill="#072938" points="768.8,525 773.3,531.8 791.6,522 		"/>
	</g>
	<g id="Livello_5_xA0_Immagine_1_">
		<polygon fill="#042435" points="777,541.5 773.3,531.8 812.3,524.5 		"/>
	</g>
	<g id="Livello_6_xA0_Immagine_1_">
		<polygon fill="#042638" points="773.3,531.8 795.5,519.8 830.3,509.3 		"/>
	</g>
	<g id="Livello_7_xA0_Immagine_1_">
		<polygon fill="#042636" points="773.3,531.8 830.3,509.3 812.3,524.5 		"/>
	</g>
	<g id="Livello_8_xA0_Immagine_1_">
		<polygon fill="#052335" points="777,541.5 812.3,524.5 809.5,541.5 		"/>
	</g>
	<g id="Livello_9_xA0_Immagine_1_">
		<polygon fill="#042536" points="809.5,541.5 812.3,524.5 830.3,509.3 		"/>
	</g>
	<g id="Livello_10_xA0_Immagine_1_">
		<polygon fill="#042434" points="823.5,519.8 864.8,504 873,519 		"/>
	</g>
</g>
<g id="Left_1_1_">
	<g id="Livello_11_xA0_Immagine_1_">
		<polygon fill="#062733" points="809.5,541.5 823.5,519.8 873,519 		"/>
	</g>
	<g id="Livello_12_xA0_Immagine_1_">
		<polygon fill="#092932" points="846.8,541 873,519 888.5,519 		"/>
	</g>
	<g id="Livello_13_xA0_Immagine_1_">
		<polygon fill="#062532" points="809.5,541.5 873,519 846.8,541 		"/>
	</g>
	<g id="Livello_14_xA0_Immagine_1_">
		<polygon fill="#0A2E32" points="874.9,526.2 888.5,519 928,518.5 		"/>
	</g>
	<g id="Livello_15_xA0_Immagine_1_">
		<polygon fill="#04212E" points="846.8,541 874.9,526.2 894.6,523.5 		"/>
	</g>
	<g id="Livello_16_xA0_Immagine_1_">
		<polygon fill="#04212E" points="846.8,541 894.6,523.5 901.7,532.5 		"/>
	</g>
	<g id="Livello_17_xA0_Immagine_1_">
		<polygon fill="#07222E" points="846.8,541 901.7,532.5 900.8,541.5 		"/>
	</g>
	<g id="Livello_18_xA0_Immagine_1_">
		<polygon fill="#05292C" points="894.6,523.5 901.7,532.5 928,518.5 		"/>
	</g>
	<g id="Livello_19_xA0_Immagine_1_">
		<polygon fill="#031F2B" points="900.8,541.5 901.7,532.5 911.3,527.6 		"/>
	</g>
	<g id="Livello_20_xA0_Immagine_1_">
		<polygon fill="#02212B" points="900.8,541.5 911.3,527.6 924.7,540.3 		"/>
	</g>
</g>
<g id="Center_1_">
	<g id="Livello_21_xA0_Immagine_1_">
		<polygon fill="#04232B" points="911.3,527.6 928,529.5 925,540.4 		"/>
	</g>
	<g id="Livello_22_xA0_Immagine_1_">
		<polygon fill="#06232C" points="925,540.4 928,529.5 948.7,524.1 		"/>
	</g>
	<g id="Livello_23_xA0_Immagine_1_">
		<polygon fill="#05202A" points="925,540.4 940.1,530.1 951.9,541 		"/>
	</g>
	<g id="Livello_24_xA0_Immagine_1_">
		<polygon fill="#082A2C" points="911.3,527.6 928,529.5 971.8,518.2 		"/>
	</g>
	<g id="Livello_25_xA0_Immagine_1_">
		<polygon fill="#092B2D" points="911.3,527.6 932.8,518.5 971.8,518.2 		"/>
	</g>
	<g id="Livello_26_xA0_Immagine_1_">
		<polygon fill="#05252B" points="911.3,527.6 928,518.5 932.8,518.5 		"/>
	</g>
	<g id="Livello_27_xA0_Immagine_1_">
		<polygon fill="#06262B" points="940.1,530.1 948.7,524.1 951.9,540.8 		"/>
	</g>
	<g id="Livello_28_xA0_Immagine_1_">
		<polygon fill="#041E2A" points="951.9,541 967.5,529.1 977.3,541 		"/>
	</g>
	<g id="Livello_29_xA0_Immagine_1_">
		<polygon fill="#041B28" points="967.5,529.1 977.3,541 980.6,539.5 		"/>
	</g>
	<g id="Livello_30_xA0_Immagine_1_">
		<polygon fill="#04282B" points="948.7,524.1 967.5,529.1 951.9,540.8 		"/>
	</g>
</g>
<g id="Right_1_">
	<g id="Livello_31_xA0_Immagine_1_">
		<polygon fill="#10322D" points="1044,516.4 971.8,518.2 967.5,529.1 		"/>
	</g>
	<g id="Livello_32_xA0_Immagine_1_">
		<polygon fill="#0A312C" points="948.7,524.1 971.8,518.2 967.5,529.1 		"/>
	</g>
	<g id="Livello_33_xA0_Immagine_1_">
		<polygon fill="#041C28" points="967.5,529.1 980.6,539.5 1044,516.4 		"/>
	</g>
	<g id="Livello_34_xA0_Immagine_1_">
		<polygon fill="#051F26" points="980.6,539.5 1044,516.4 1082.6,515.3 		"/>
	</g>
	<g id="Livello_35_xA0_Immagine_1_">
		<polygon fill="#062126" points="980.6,539.5 1082.6,515.3 1128.2,513.4 		"/>
	</g>
	<g id="Livello_36_xA0_Immagine_1_">
		<polygon fill="#021822" points="980.6,539.5 1128.2,513.4 1128.8,540 		"/>
	</g>
	<g id="Livello_37_xA0_Immagine_1_">
		<polygon fill="#02121E" points="1128.2,513.4 1128.8,540 1219.1,542.4 		"/>
	</g>
	<g id="Livello_38_xA0_Immagine_1_">
		<polygon fill="#02131C" points="1128.2,513.4 1219.1,542.4 1210.2,509.9 		"/>
	</g>
	<g id="Livello_39_xA0_Immagine_1_">
		<polygon fill="#010711" points="1397.5,539.3 1440,468.8 1440,527.1 		"/>
	</g>
	<g id="Livello_40_xA0_Immagine_1_">
		<polygon fill="#05101D" points="1424.3,468 1440,464 1440,468.8 		"/>
	</g>
</g>
<g id="Right_1_1_">
	<g id="Livello_41_xA0_Immagine_1_">
		<polyline fill="#010912" points="1374,493.5 1397.5,539.3 1439.8,469.1 1375.4,492.8 		"/>
	</g>
	<g id="Livello_42_xA0_Immagine_1_">
		<polygon fill="#020C15" points="1219.1,542.4 1374,493.5 1397.5,539.3 		"/>
	</g>
	<g id="Livello_43_xA0_Immagine_1_">
		<polygon fill="#02111A" points="1210.2,509.9 1219.1,542.4 1333.5,506.3 		"/>
	</g>
	<g id="Livello_44_xA0_Immagine_1_">
		<polygon fill="#010B16" points="1374,493.5 1424.3,468 1440,468.8 		"/>
	</g>
	<g id="Livello_45_xA0_Immagine_1_">
		<polygon fill="#010C18" points="1374.1,483.9 1374,493.5 1424.3,468 		"/>
	</g>
	<g id="Livello_46_xA0_Immagine_1_">
		<polygon fill="#010A16" points="1356.1,483.6 1374,493.5 1374.1,483.9 		"/>
	</g>
	<g id="Livello_47_xA0_Immagine_1_">
		<polygon fill="#010D16" points="1332.3,492 1333.5,506.3 1374,493.5 		"/>
	</g>
	<g id="Livello_48_xA0_Immagine_1_">
		<polyline fill="#010B17" points="1332.3,492 1332.3,492 1332.3,492 1356.1,483.6 1374,493.5 1332.3,492 		"/>
	</g>
	<g id="Livello_49_xA0_Immagine_1_">
		<polygon fill="#010F1C" points="1315.8,489.8 1332.3,492 1356.1,483.6 		"/>
	</g>
	<g id="Livello_50_xA0_Immagine_1_">
		<polygon fill="#010C16" points="1311,506.9 1332.3,492 1333.5,506.3 		"/>
	</g>
</g>
<g id="Right_2_1_">
	<g id="Livello_51_xA0_Immagine_1_">
		<polygon fill="#010E1A" points="1311,506.9 1332.3,492 1315.8,489.8 		"/>
	</g>
	<g id="Livello_52_xA0_Immagine_1_">
		<polygon fill="#020E19" points="1284.7,507.7 1315.8,489.8 1311,506.9 		"/>
	</g>
	<g id="Livello_53_xA0_Immagine_1_">
		<polygon fill="#020E1B" points="1273.6,501.5 1284.7,507.7 1295.1,501.5 		"/>
	</g>
	<g id="Livello_54_xA0_Immagine_1_">
		<polygon fill="#02101B" points="1259.3,493.5 1264,508.5 1284.7,507.7 		"/>
	</g>
	<g id="Livello_55_xA0_Immagine_1_">
		<polygon fill="#01101D" points="1237.8,489.4 1259.3,493.5 1264,508.5 		"/>
	</g>
	<g id="Livello_56_xA0_Immagine_1_">
		<polygon fill="#01111D" points="1264,508.5 1237.8,489.4 1210.2,509.9 		"/>
	</g>
	<g id="Livello_57_xA0_Immagine_1_">
		<polygon fill="#011320" points="1157.3,491.6 1210.2,509.9 1237.8,489.4 		"/>
	</g>
	<g id="Livello_58_xA0_Immagine_1_">
		<polygon fill="#021724" points="1133.1,492.8 1157.3,491.6 1143.6,512.8 		"/>
	</g>
	<g id="Livello_59_xA0_Immagine_1_">
		<polygon fill="#021521" points="1157.3,491.6 1143.6,512.8 1210.2,509.9 		"/>
	</g>
	<g id="Livello_60_xA0_Immagine_1_">
		<polygon fill="#041924" points="1116,498.8 1133.1,492.8 1143.6,512.8 		"/>
	</g>
</g>
<g id="Center_2_1_">
	<g id="Livello_61_xA0_Immagine_1_">
		<polygon fill="#021A24" points="1061,515.9 1116,498.8 1143.6,512.8 		"/>
	</g>
	<g id="Livello_62_xA0_Immagine_1_">
		<polyline fill="#021A27" points="1100.8,498.8 1116,498.9 1061,515.9 1101.8,498.9 		"/>
	</g>
	<g id="Livello_63_xA0_Immagine_1_">
		<polygon fill="#031C29" points="1091.6,497.1 1101.8,498.9 1061,515.9 		"/>
	</g>
	<g id="Livello_64_xA0_Immagine_1_">
		<polygon fill="#041C29" points="1069.8,500.5 1091.6,497.1 1061,515.9 		"/>
	</g>
	<g id="Livello_65_xA0_Immagine_1_">
		<polygon fill="#021F2E" points="1053.3,498.8 1069.8,500.5 1061,515.9 		"/>
	</g>
	<g id="Livello_66_xA0_Immagine_1_">
		<polygon fill="#011E2F" points="1030.6,496.5 1053.3,498.8 1061,515.9 		"/>
	</g>
	<g id="Livello_67_xA0_Immagine_1_">
		<polygon fill="#031C2B" points="1029.9,496.1 1034,516.4 1061,515.9 		"/>
	</g>
	<g id="Livello_68_xA0_Immagine_1_">
		<polygon fill="#021F30" points="1034,516.4 1029.9,496.1 985.9,478.3 		"/>
	</g>
	<g id="Livello_69_xA0_Immagine_1_">
		<polygon fill="#021E2D" points="985.9,478.3 999.5,517.5 1034,516.4 		"/>
	</g>
	<g id="Livello_70_xA0_Immagine_1_">
		<polygon fill="#072C3C" points="950.9,446.3 958.6,477 985.9,478.3 		"/>
	</g>
</g>
<g id="Big_mountain_1_">
	<g id="Livello_71_xA0_Immagine_1_">
		<polyline fill="#021F30" points="958.6,477 985.9,478.3 999.5,517.5 959.3,478.3 		"/>
	</g>
	<g id="Livello_72_xA0_Immagine_1_">
		<polygon fill="#072A38" points="932.5,444.1 950.9,446.3 937.9,476.5 		"/>
	</g>
	<g id="Livello_73_xA0_Immagine_1_">
		<polygon fill="#072838" points="932.5,444.1 906.9,452.5 937.9,476.5 		"/>
	</g>
	<g id="Livello_74_xA0_Immagine_1_">
		<polygon fill="#022533" points="937.9,476.5 950.9,446.3 958.6,477 		"/>
	</g>
	<g id="Livello_75_xA0_Immagine_1_">
		<polygon fill="#052637" points="906.9,452.5 937.9,476.5 893.3,472.1 		"/>
	</g>
	<g id="Livello_76_xA0_Immagine_1_">
		<polygon fill="#032234" points="893.3,472.1 937.9,476.5 892.5,519 		"/>
	</g>
	<g id="Livello_77_xA0_Immagine_1_">
		<polyline fill="#021F2F" points="937.9,476.5 958.6,477 999.5,517.5 937.9,476.5 		"/>
	</g>
	<g id="Livello_78_xA0_Immagine_1_">
		<polygon fill="#011E2C" points="937.9,476.5 958.1,518.2 999.5,517.5 		"/>
	</g>
	<g id="Livello_79_xA0_Immagine_1_">
		<polygon fill="#021F2F" points="937.9,476.5 892.5,519 958.1,518.2 		"/>
	</g>
	<g id="Livello_80_xA0_Immagine_1_">
		<polygon fill="#042433" points="873,519 893.3,472.1 892.5,519 		"/>
	</g>
</g>
<g id="Light_1_">
	<g id="Livello_81_xA0_Immagine_1_">
		<polyline fill="#18323B" points="875.2,492.4 880.3,485.4 879,490.6 875.2,492.4 		"/>
		<polygon fill="#18323B" points="880.3,485.4 879,490.6 886.9,486.8 		"/>
	</g>
	<g id="Livello_83_xA0_Immagine_1_">
		<polygon fill="#20333D" points="880.3,485.4 887.3,477 886.9,486.8 		"/>
	</g>
	<g id="Livello_84_xA0_Immagine_1_">
		<polygon fill="#0F2A39" points="887.3,477 893.3,472.1 889.6,480.5 		"/>
	</g>
	<g id="Livello_85_xA0_Immagine_1_">
		<polygon fill="#0A2A3B" points="887.3,477 886.9,486.8 889.6,480.5 		"/>
	</g>
	<g id="Livello_86_xA0_Immagine_1_">
		<polyline fill="#082C3B" points="875.2,492.4 886.9,486.8 885,491.3 875.2,492.4 		"/>
	</g>
	<g id="Livello_87_xA0_Immagine_1_">
		<polyline fill="#102D3A" points="864.8,504 875.2,492.4 875.1,504.5 865.5,504 		"/>
	</g>
	<g id="Livello_88_xA0_Immagine_1_">
		<polygon fill="#0C2C3B" points="875.2,492.4 885,491.3 875.1,504.5 		"/>
	</g>
	<g id="Livello_89_xA0_Immagine_1_">
		<polygon fill="#032335" points="864.8,504 879.3,504.6 873,519 		"/>
	</g>
	<g id="Livello_90_xA0_Immagine_1_">
		<polygon fill="#072838" points="875.1,504.5 879.3,504.6 885,491.3 		"/>
	</g>
</g>
<g id="Livello_98">
	<polygon fill="#102D3A" points="830.3,509.3 823.5,519.8 864.8,504 	"/>
</g>
<g id="Livello_99">
	<polygon fill="#010912" points="1397.5,539.3 1440,538.4 1440,527.1 	"/>
</g>
</svg>
