<?xml version="1.0" encoding="utf-8"?>
<!-- Generator: Adobe Illustrator 25.0.0, SVG Export Plug-In . SVG Version: 6.00 Build 0)  -->
<svg version="1.1" id="Livello_1" xmlns="http://www.w3.org/2000/svg" xmlns:xlink="http://www.w3.org/1999/xlink" x="0px" y="0px"
	 viewBox="0 0 2500 2500" style="enable-background:new 0 0 2500 2500;" xml:space="preserve">
<style type="text/css">
	.st0{fill:none;}
	.st1{fill:#202020;}
	.st2{fill:#FFFFFF;}
	.st3{fill:#FFB739;enable-background:new    ;}
</style>
<path class="st0" d="M0,0h2500v2500H0V0z"/>
<g>
	<path class="st1" d="M471.8,374.6l145.9,1580.6l632.3,170.2l632.3-170.2l145.9-1580.6H471.8z M1763.1,1852.3l-511.7,137.8l-1.4-0.4
		l-1.4,0.4l-511.7-137.8L618.8,502.6H1250h0h631.2L1763.1,1852.3z"/>
	<path class="st2" d="M1249.4,897.8l-452.5,188.5l15,186.6l437.5-187.1l465.4-199l19.3-190.9L1249.4,897.8L1249.4,897.8z"/>
	<polygon class="st3" points="1249.4,695.9 1249.4,695.9 756.1,695.9 756.1,695.9 779.7,886.8 779.7,886.8 1249.4,886.8 
		1275.8,886.8 1249.4,897.8 1249.4,898.2 797.9,1086.3 812.9,1272.9 812.9,1272.9 812.9,1272.9 1250.4,1274.3 1250.4,1274.3 
		1484.9,1275 1469.9,1523.8 1250.4,1585.6 1250.4,1585.4 1248.6,1585.9 1036.7,1532.4 1023.8,1378 826.5,1378 826.5,1378 
		825.8,1378 851.5,1676.1 1250.4,1794 1250.4,1793.8 1251.1,1794 1647.9,1678.2 1699.4,1086.3 1250.4,1086.3 1250.4,1086.3 
		1249.3,1086.3 1250.4,1085.8 1250.4,1085.4 1714.8,886.8 1714.8,886.8 1734.1,695.9 	"/>
</g>
</svg>
