<?xml version="1.0" encoding="utf-8"?>
<!-- Generator: Adobe Illustrator 17.1.0, SVG Export Plug-In . SVG Version: 6.00 Build 0)  -->
<!DOCTYPE svg PUBLIC "-//W3C//DTD SVG 1.1//EN" "http://www.w3.org/Graphics/SVG/1.1/DTD/svg11.dtd">
<svg version="1.1" xmlns="http://www.w3.org/2000/svg" xmlns:xlink="http://www.w3.org/1999/xlink" x="0px" y="0px"
	 viewBox="0 0 1440 810" enable-background="new 0 0 1440 810" xml:space="preserve">
<g id="Background">
	<polygon fill="#020307" points="73.4,412.8 78.3,415.3 133.6,460.3 145.5,462 156.3,473.3 172.8,486.8 210.6,516.5 222.8,524.3 
		237.8,522.4 250,531.8 255,543 253.5,547.2 228.8,548.3 222.8,547.2 204.2,546.6 177.9,548.5 158,548.5 129.4,546.6 123,551.3 
		78,552 72.7,554.3 58.8,553.8 0,558.3 0,460.5 0,329 27.3,361.9 59.1,379.3 	"/>
</g>
<g id="Top_Mountain">
	<g id="Livello_92">
		<polygon fill="#071015" points="0,329 28.5,363.3 0,346.8 		"/>
	</g>
	<g id="Livello_94">
		<polygon fill="#020A0C" points="0,346.7 29.3,363 0,366 		"/>
	</g>
	<g id="Livello_93">
		<polygon fill="#041018" points="27.3,361.9 59.1,379.3 46.3,387.4 		"/>
	</g>
	<g id="Livello_95">
		<polygon fill="#07111B" points="59.1,379.3 46.1,387.1 73.8,413.7 		"/>
	</g>
	<g id="Livello_96">
		<polygon fill="#020B0E" points="9.1,363.6 27.9,362.3 46.4,387 		"/>
	</g>
</g>
<g id="Main_Mountain">
	<g id="Livello_97">
		<polygon fill="#010406" points="0,364.5 9.1,363.6 0,425 		"/>
	</g>
	<g id="Livello_98">
		<polygon fill="#01090C" points="9.1,363.3 6.8,379 46.4,386.7 		"/>
	</g>
	<g id="Livello_99">
		<polygon fill="#020A0C" points="6.8,378.9 46.4,386.7 73.8,413.4 		"/>
	</g>
	<g id="Livello_100">
		<polygon fill="#010607" points="6.8,378.7 3.2,400.8 78.3,415.3 		"/>
	</g>
	<g id="Livello_101">
		<polygon fill="#010306" points="3.2,400.1 1,417 78.3,415.3 		"/>
	</g>
</g>
<g id="Right_Middle_mountain">
	<g id="Livello_102">
		<polygon fill="#010307" points="6.6,379 0,425 0,444 		"/>
	</g>
	<g id="Livello_103">
		<polygon fill="#010308" points="2.3,416.8 78.3,415.3 39.5,425 		"/>
	</g>
	<g id="Livello_104">
		<polygon fill="#020508" points="38.9,424.8 78.3,415.3 60.5,434.4 		"/>
	</g>
	<g id="Livello_105">
		<polygon fill="#010609" points="60.4,434.3 78.3,415.3 68.1,447.7 		"/>
	</g>
	<g id="Livello_106">
		<polygon fill="#020A0C" points="78.3,415.3 133.6,460.3 125.3,467.8 		"/>
	</g>
	<g id="Livello_107">
		<polygon fill="#010809" points="78.3,415.3 68,447.7 101.8,463.5 		"/>
	</g>
	<g id="Livello_108">
		<polygon fill="#010406" points="67.9,447.2 68.2,468.6 101.8,463 		"/>
	</g>
	<g id="Livello_109">
		<polygon fill="#020307" points="68,468.4 101.8,463 85.7,487.7 		"/>
	</g>
	<g id="Livello_110">
		<polyline fill="#010406" points="101.8,463 85.6,487.4 101.6,496.9 101.6,464.3 		"/>
	</g>
	<g id="Livello_111">
		<polygon fill="#010809" points="101.6,463 101.6,496.9 125.6,467.4 		"/>
	</g>
</g>
<g id="Under_Right_Middle">
	<g id="Livello_112">
		<path fill="#010A09" d="M125,467.5l-23.4,29.4c0,0,35.6-5.8,36.2-5.8C138.4,491.1,125,467.5,125,467.5z"/>
	</g>
	<g id="Livello_113">
		<polygon fill="#010909" points="137.8,490.6 101.6,496.9 150.9,505.4 		"/>
	</g>
	<g id="Livello_114">
		<polygon fill="#02090A" points="150.9,505.4 101.6,496.9 165.5,522.5 		"/>
	</g>
	<g id="Livello_115">
		<polygon fill="#020C0B" points="165.5,522.5 175.6,523.1 178.6,535.5 		"/>
	</g>
	<g id="Livello_116">
		<polygon fill="#020C0C" points="175.6,523.1 178.5,536.3 191.2,532.3 		"/>
	</g>
	<g id="Livello_117">
		<polygon fill="#040E0F" points="178.6,535.3 191.4,531.8 204.2,546.6 		"/>
	</g>
	<g id="Livello_118">
		<polygon fill="#03080B" points="178.6,535.1 177.4,548.5 204.2,546.6 		"/>
	</g>
	<g id="Livello_119">
		<polygon fill="#020509" points="178.6,535.3 177.9,548.5 158,548.5 		"/>
	</g>
	<g id="Livello_120">
		<polygon fill="#010A0A" points="165.5,522.5 158,529.2 178.6,535.5 		"/>
	</g>
</g>
<g id="Pieces">
	<g id="Livello_126">
		<polygon fill="#010708" points="101.6,496.9 158,529.2 165.5,522.5 		"/>
	</g>
	<g id="Livello_127">
		<polygon fill="#010508" points="158,529.2 138.7,540 158,548.5 		"/>
	</g>
	<g id="Livello_125">
		<polygon fill="#010407" points="101.6,496.9 138.7,540 158,529.2 		"/>
	</g>
	<g id="Livello_128">
		<polygon fill="#02050C" points="138.7,540 126.3,546.6 158,548.5 		"/>
	</g>
	<g id="Livello_121">
		<polygon fill="#02060E" points="2.3,416.8 40.3,424.4 28.3,445.5 		"/>
	</g>
	<g id="Livello_122">
		<polygon fill="#03080F" points="38.9,424.2 28.3,445.5 61.5,434.4 		"/>
	</g>
	<g id="Livello_123">
		<polygon fill="#03080F" points="61.5,434.4 28.3,445.5 69.3,448.8 		"/>
	</g>
	<g id="Livello_124">
		<polygon fill="#03060C" points="69.3,448.8 28.3,445.5 69.3,469.8 		"/>
	</g>
</g>
<g id="Lot_of_Pieces">
	<g id="Livello_133">
		<polygon fill="#03070E" points="69.3,469.8 48,477.5 28.3,445.5 		"/>
	</g>
	<g id="Livello_132">
		<polygon fill="#02080F" points="48,477.5 28.3,445.5 20.3,469.1 		"/>
	</g>
	<g id="Livello_131">
		<polygon fill="#02070D" points="0,444 20.3,469.1 28.3,445.5 		"/>
	</g>
	<g id="Livello_129">
		<polygon fill="#03070E" points="0,444 2.3,416.8 28.3,445.5 		"/>
	</g>
	<g id="Livello_134">
		<polygon fill="#02050B" points="47.3,477.3 69.3,469.8 85.7,487.7 		"/>
	</g>
	<g id="Livello_135">
		<polygon fill="#010206" points="85.6,487.4 101.6,496.9 86.6,519.8 		"/>
	</g>
	<g id="Livello_136">
		<polyline fill="#01050B" points="86.6,519.8 101.6,496.9 113,522 86.6,519.8 		"/>
	</g>
	<g id="Livello_142">
		<polygon fill="#010706" points="86.3,519.8 113,522 104.3,535.5 		"/>
	</g>
	<g id="Livello_143">
		<polygon fill="#010507" points="92.3,552 113,522 123,551.3 		"/>
	</g>
	<g id="Livello_145">
		<polygon fill="#010406" points="68.1,542.9 104.4,535.5 78.1,552 		"/>
	</g>
	<g id="Livello_144">
		<polyline fill="#010406" points="78,552 104.3,535.5 92.3,552 78,552 		"/>
	</g>
	<g id="Livello_141">
		<polyline fill="#010606" points="68.8,543 86.3,519.8 104.3,535.5 68.8,543 		"/>
	</g>
	<g id="Livello_140">
		<polygon fill="#010406" points="58.5,522.4 86.3,519.8 68.4,543.8 		"/>
	</g>
	<g id="Livello_139">
		<polygon fill="#010606" points="20.3,469.1 58.5,522.4 86.6,519.8 		"/>
	</g>
	<g id="Livello_130">
		<polygon fill="#010406" points="0,444 0,465.8 20.3,469.1 		"/>
	</g>
	<g id="Livello_137">
		<polygon fill="#010504" points="0,465.8 20.3,469.1 0,505.5 		"/>
	</g>
	<g id="Livello_138">
		<polygon fill="#010505" points="20.3,469.1 9.6,488.3 58.5,522.4 		"/>
	</g>
	<g id="Livello_148">
		<polyline fill="#010506" points="68.1,542.9 58.5,522.4 9.6,488.3 68,542.9 		"/>
	</g>
	<g id="Livello_149">
		<polygon fill="#010505" points="9.6,488.3 58.8,553.8 68,542.9 		"/>
	</g>
	<g id="Livello_150">
		<polygon fill="#010404" points="9.6,488.3 27.8,555.5 58.8,553.8 		"/>
	</g>
	<g id="Livello_151">
		<polygon fill="#020404" points="27.8,555.5 0,558.3 9.6,488.3 		"/>
	</g>
	<g id="Livello_152">
		<polygon fill="#010403" points="9.6,488.3 0,504.8 0,558.3 		"/>
	</g>
	<g id="Livello_147">
		<polygon fill="#04080C" points="68,542.9 58.8,553.8 72.7,554.3 		"/>
	</g>
	<g id="Livello_146">
		<polygon fill="#02070C" points="72.7,554.3 78,552 68,542.9 		"/>
	</g>
	<g id="Livello_158">
		<polyline fill="#02080C" points="133.6,460.3 145.5,462 145.9,475.5 135.4,462.8 		"/>
	</g>
	<g id="Livello_159">
		<polygon fill="#020A0F" points="145.5,462.2 145.9,475.5 156.3,473.3 		"/>
	</g>
	<g id="Livello_160">
		<polygon fill="#010B0D" points="145.9,475.5 156.3,473.3 172.8,486.8 		"/>
	</g>
	<g id="Livello_157">
		<polygon fill="#010B0C" points="125.3,467.8 133.6,460.3 145.9,475.5 		"/>
	</g>
	<g id="Livello_153">
		<polygon fill="#01090B" points="125.3,467.8 147,475.5 137.8,491.1 		"/>
	</g>
	<g id="Livello_154">
		<polygon fill="#01080A" points="154.8,511.1 137.8,491.1 147,475.5 		"/>
	</g>
	<g id="Livello_155">
		<polygon fill="#020B0C" points="147,475.5 165.5,522.5 154.8,511.1 		"/>
	</g>
	<g id="Livello_156">
		<polygon fill="#020B0C" points="165.5,522.5 175.6,523.1 147,475.5 		"/>
	</g>
	<g id="Livello_161">
		<polygon fill="#010B0C" points="147.7,476.3 172.8,486.8 214.8,519.8 		"/>
	</g>
	<g id="Livello_162">
		<polygon fill="#010A0C" points="175.6,523.1 191.2,532.3 222.8,524.3 		"/>
	</g>
	<g id="Livello_163">
		<polygon fill="#020A0C" points="191.2,532.3 204.2,546.6 222.8,524.3 		"/>
	</g>
	<g id="Livello_164">
		<polygon fill="#020A0C" points="204.2,546.6 222.8,524.3 222.8,547.2 		"/>
	</g>
	<g id="Livello_165">
		<polyline fill="#010C0E" points="222.8,524.3 237.8,522.4 238.3,540.8 222.8,524.3 		"/>
	</g>
	<g id="Livello_166">
		<polyline fill="#020D0E" points="238.3,540.8 250,531.8 255,543 238.3,540.8 		"/>
	</g>
	<g id="Livello_167">
		<polygon fill="#030C10" points="238.3,540.3 255,543 253.5,547.2 		"/>
	</g>
	<g id="Livello_168">
		<polyline fill="#02090D" points="228.8,548.3 238.3,540.3 253.5,547.2 228.8,548.3 		"/>
	</g>
	<g id="Livello_169">
		<polygon fill="#020B0E" points="222.8,524.3 228.8,548.3 238.3,540.3 		"/>
	</g>
	<g id="Livello_170">
		<polygon fill="#020A0E" points="222.8,524.3 222.8,547.2 228.8,548.3 		"/>
	</g>
	<g id="Livello_176">
		<polyline fill="#040E0F" points="237.8,522.4 238.3,540.8 250,531.8 237.8,522.4 		"/>
	</g>
</g>
<g id="Gruppo_7_1_">
	<g id="Livello_172">
		<polygon fill="#010B0B" points="78.3,415.3 101.8,463.5 125.3,467.8 		"/>
	</g>
	<g id="Livello_171">
		<polygon fill="#02050A" points="20.3,469.1 85.7,487.7 86.6,519.8 		"/>
	</g>
	<g id="Livello_173">
		<polygon fill="#010308" points="101.6,496.9 123,551.3 138.7,540 		"/>
	</g>
	<g id="Livello_174">
		<polygon fill="#020609" points="158,529.2 178.6,535.5 158,548.5 		"/>
	</g>
	<g id="Livello_175">
		<polygon fill="#010A0C" points="147.7,476.3 222.8,524.3 175.6,523.1 		"/>
	</g>
</g>
</svg>
