<svg width="38" height="38" viewBox="0 0 38 38" fill="none" xmlns="http://www.w3.org/2000/svg">
<path d="M23.7285 5.00065C25.0005 5.00065 26.2724 5.00065 27.5403 5.00065C29.573 5.00065 31.6057 5.00065 33.6383 5.00065C34.1039 5.00065 34.5653 5.00065 35.0309 5.00065C34.1995 4.16929 33.3681 3.33792 32.5368 2.50656C32.5368 3.77855 32.5368 5.05054 32.5368 6.31837C32.5368 8.35105 32.5368 10.3837 32.5368 12.4164C32.5368 12.882 32.5368 13.3434 32.5368 13.809C32.5368 14.4491 32.8153 15.1184 33.2684 15.5715C33.7007 16.0038 34.4115 16.328 35.0309 16.3031C35.6752 16.274 36.3444 16.062 36.7934 15.5715C37.2423 15.0851 37.525 14.4824 37.525 13.809C37.525 12.537 37.525 11.265 37.525 9.99715C37.525 7.96447 37.525 5.93178 37.525 3.8991C37.525 3.43353 37.525 2.97212 37.525 2.50656C37.525 1.15975 36.3818 0.0124664 35.0309 0.0124664C33.7589 0.0124664 32.4869 0.0124664 31.2191 0.0124664C29.1864 0.0124664 27.1537 0.0124664 25.121 0.0124664C24.6554 0.0124664 24.194 0.0124664 23.7285 0.0124664C23.0883 0.0124664 22.4191 0.290974 21.966 0.744067C21.5337 1.17638 21.2094 1.88719 21.2344 2.50656C21.2635 3.15087 21.4755 3.82012 21.966 4.26905C22.4523 4.71799 23.0509 5.00065 23.7285 5.00065Z" fill="#FFB739"/>
<path d="M18.0378 23.0246C18.6614 22.4011 19.2807 21.7818 19.9043 21.1582C21.3966 19.6659 22.8889 18.1736 24.3853 16.6772C26.1935 14.869 27.9976 13.0649 29.8058 11.2567C31.3688 9.69371 32.9276 8.1349 34.4905 6.57194C35.2512 5.81124 36.0161 5.05885 36.7685 4.294C36.781 4.28153 36.7893 4.27321 36.8017 4.26074C37.2548 3.80765 37.5333 3.1384 37.5333 2.49825C37.5333 1.8872 37.2631 1.1556 36.8017 0.735757C36.3279 0.299291 35.7043 -0.0249411 35.0392 0.00415664C34.3783 0.0332544 33.7548 0.257723 33.2768 0.735757C32.6532 1.35928 32.0339 1.97865 31.4103 2.60217C29.9097 4.09863 28.4174 5.59093 26.9251 7.08323C25.1169 8.89144 23.3129 10.6955 21.5046 12.5037C19.9417 14.0667 18.3829 15.6255 16.8199 17.1885C16.0592 17.9492 15.2943 18.7015 14.542 19.4664C14.5295 19.4789 14.5212 19.4872 14.5087 19.4997C14.0556 19.9527 13.7771 20.622 13.7771 21.2621C13.7771 21.8732 14.0473 22.6048 14.5087 23.0246C14.9867 23.4611 15.6103 23.7853 16.2754 23.7562C16.9363 23.7271 17.5598 23.5027 18.0378 23.0246Z" fill="#FFB739"/>
<path d="M32.541 22.9581C32.541 24.0264 32.541 25.0906 32.541 26.1589C32.541 27.8258 32.541 29.4927 32.541 31.1595C32.541 31.6168 32.5742 32.0907 32.5119 32.5438C32.541 32.3235 32.5701 32.1031 32.5992 31.8787C32.5618 32.1198 32.4994 32.3484 32.408 32.577C32.4911 32.3775 32.5742 32.178 32.6574 31.9826C32.5576 32.2195 32.4288 32.4357 32.275 32.6435C32.4038 32.4773 32.5368 32.3068 32.6657 32.1406C32.5077 32.3401 32.329 32.5188 32.1295 32.6768C32.2957 32.5479 32.4662 32.4149 32.6324 32.286C32.4288 32.4398 32.2084 32.5687 31.9715 32.6685C32.171 32.5853 32.3706 32.5022 32.5659 32.4191C32.3415 32.5105 32.1087 32.5729 31.8676 32.6103C32.0879 32.5812 32.3082 32.5521 32.5327 32.523C32.1918 32.5687 31.8385 32.5521 31.4935 32.5521C30.8492 32.5521 30.209 32.5521 29.5647 32.5521C27.4198 32.5521 25.2749 32.5521 23.1299 32.5521C20.5236 32.5521 17.9131 32.5521 15.3068 32.5521C13.0621 32.5521 10.8174 32.5521 8.57275 32.5521C7.51692 32.5521 6.46109 32.5604 5.40941 32.5521C5.26808 32.5521 5.12675 32.5438 4.98542 32.523C5.20573 32.5521 5.42604 32.5812 5.65051 32.6103C5.40941 32.5729 5.18079 32.5105 4.95216 32.4191C5.15169 32.5022 5.35122 32.5853 5.54659 32.6685C5.30965 32.5687 5.09349 32.4398 4.88565 32.286C5.05193 32.4149 5.22236 32.5479 5.38863 32.6768C5.1891 32.5188 5.01036 32.3401 4.8524 32.1406C4.98126 32.3068 5.11428 32.4773 5.24314 32.6435C5.08934 32.4398 4.96047 32.2195 4.86071 31.9826C4.94385 32.1821 5.02698 32.3816 5.11012 32.577C5.01867 32.3526 4.95632 32.1198 4.91891 31.8787C4.948 32.099 4.9771 32.3193 5.0062 32.5438C4.96047 32.2029 4.9771 31.8496 4.9771 31.5046C4.9771 30.8603 4.9771 30.2201 4.9771 29.5758C4.9771 27.4309 4.9771 25.286 4.9771 23.141C4.9771 20.5347 4.9771 17.9242 4.9771 15.3179C4.9771 13.0732 4.9771 10.8285 4.9771 8.58384C4.9771 7.52801 4.96879 6.47217 4.9771 5.4205C4.9771 5.27916 4.98542 5.13783 5.0062 4.9965C4.9771 5.21681 4.948 5.43712 4.91891 5.66159C4.95632 5.4205 5.01867 5.19187 5.11012 4.96325C5.02698 5.16277 4.94385 5.3623 4.86071 5.55767C4.96047 5.32073 5.08934 5.10458 5.24314 4.89674C5.11428 5.06301 4.98126 5.23344 4.8524 5.39971C5.01036 5.20018 5.1891 5.02144 5.38863 4.86348C5.22236 4.99234 5.05193 5.12536 4.88565 5.25422C5.08934 5.10042 5.30965 4.97156 5.54659 4.8718C5.34706 4.95493 5.14753 5.03807 4.95216 5.12121C5.17663 5.02976 5.40941 4.9674 5.65051 4.92999C5.4302 4.95909 5.20988 4.98819 4.98542 5.01728C5.36784 4.9674 5.7669 4.98819 6.15348 4.98819C6.87261 4.98819 7.59174 4.98819 8.31087 4.98819C10.0027 4.98819 11.6987 4.98819 13.3905 4.98819C13.7854 4.98819 14.1762 4.98819 14.571 4.98819C15.2112 4.98819 15.8804 4.70968 16.3335 4.25659C16.7659 3.82428 17.0901 3.11346 17.0651 2.49409C17.036 1.84979 16.824 1.18054 16.3335 0.731601C15.8472 0.282664 15.2445 0 14.571 0C13.3988 0 12.2224 0 11.0502 0C9.36671 0 7.68735 0 6.00384 0C5.27639 0 4.53648 0 3.83398 0.228625C3.34347 0.386585 2.83634 0.598583 2.4165 0.906187C2.15046 1.10156 1.86364 1.3094 1.62255 1.54218C1.36482 1.78743 1.15698 2.08672 0.944984 2.36939C0.325618 3.20075 0.0304834 4.29815 0.00554243 5.32489C-0.00692804 5.84449 0.00554243 6.3641 0.00554243 6.8837C0.00554243 8.17231 0.00554243 9.46093 0.00554243 10.7537C0.00554243 12.5287 0.00554243 14.2995 0.00554243 16.0744C0.00554243 17.9907 0.00554243 19.9112 0.00554243 21.8275C0.00554243 23.5733 0.00554243 25.3192 0.00554243 27.0651C0.00554243 28.3204 0.00554243 29.5758 0.00554243 30.827C0.00554243 31.6708 -0.0110848 32.4689 0.138561 33.3045C0.167659 33.4707 0.213384 33.6287 0.271579 33.7867C0.396284 34.1234 0.533459 34.4642 0.703889 34.7801C0.944984 35.2166 1.26506 35.6281 1.62255 35.9731C2.34999 36.6756 3.31853 37.2368 4.32448 37.3989C4.79836 37.4738 5.23483 37.5153 5.70455 37.5153C6.60242 37.5153 7.49614 37.5153 8.39401 37.5153C9.94035 37.5153 11.4867 37.5153 13.033 37.5153C14.9161 37.5153 16.7949 37.5153 18.678 37.5153C20.5569 37.5153 22.4358 37.5153 24.3188 37.5153C25.8818 37.5153 27.4447 37.5153 29.0035 37.5153C29.9264 37.5153 30.8492 37.5153 31.772 37.5153C31.959 37.5153 32.1503 37.5195 32.3373 37.507C32.8611 37.4696 33.4015 37.4031 33.8961 37.2077C34.212 37.083 34.5404 36.9583 34.8356 36.7879C35.1515 36.605 35.4466 36.3639 35.721 36.1353C36.1117 35.811 36.4318 35.387 36.7103 34.9672C36.9846 34.5474 37.1883 34.0568 37.3255 33.5747C37.525 32.8722 37.525 32.1697 37.525 31.4547C37.525 30.7023 37.525 29.9541 37.525 29.2017C37.525 27.4433 37.525 25.685 37.525 23.9267C37.525 23.5983 37.525 23.2699 37.525 22.9415C37.525 22.3014 37.2465 21.6321 36.7934 21.179C36.3611 20.7467 35.6503 20.4225 35.0309 20.4474C34.3866 20.4765 33.7174 20.6885 33.2684 21.179C32.8195 21.682 32.541 22.2806 32.541 22.9581Z" fill="#202020"/>
</svg>
