<svg xmlns="http://www.w3.org/2000/svg" data-name="Layer 1" viewBox="0 0 64 80" x="0px" y="0px"><path d="M52.57,56.29a1.00191,1.00191,0,0,0,.42-.8V31.74L50.9,32.83a3.96755,3.96755,0,0,1-3.88,4.68,20.71378,20.71378,0,0,1-4.06-.56L28.91,44.26a1.98,1.98,0,0,1-1.84.01C24.58964,43.00076,5.92422,33.27635,2.99,31.75V55.49a1.02129,1.02129,0,0,0,1,1h48A.99131.99131,0,0,0,52.57,56.29Z"/><path d="M27.99,42.49c2.52159-1.31271,9.71894-5.05658,12.34-6.42a15.52116,15.52116,0,0,1-9.24-13.58H3.99a.99654.99654,0,0,0-1,1v6C5.98554,31.04749,25.51093,41.2229,27.99,42.49Z"/><path d="M46.98645,7.50549c-18.5719.7685-18.56854,27.23346.00012,28.00006a2.00023,2.00023,0,0,0-.00018-4.00006,10.01145,10.01145,0,0,1-9.99994-10c.5495-13.26611,19.45239-13.26275,20,.00006v.99994a2.00021,2.00021,0,0,1-4-.00008c.81367-8.50407-11.56072-9.60708-12.00011-.99973a6.02573,6.02573,0,0,0,9.45037,4.90045c3.46972,4.19574,10.61737,1.61413,10.54968-3.90076A14.0951,14.0951,0,0,0,46.98645,7.50549Zm0,16a2.00021,2.00021,0,0,1,.00012-4A2.00021,2.00021,0,0,1,46.98645,23.50549Z"/></svg>