<svg xmlns="http://www.w3.org/2000/svg" xmlns:xlink="http://www.w3.org/1999/xlink" xml:space="preserve" version="1.1" style="shape-rendering:geometricPrecision;text-rendering:geometricPrecision;image-rendering:optimizeQuality;" viewBox="0 0 327 408.75" x="0px" y="0px" fill-rule="evenodd" clip-rule="evenodd"><defs><style type="text/css">
   
    .fil0 {fill:black}
    .fil1 {fill:black;fill-rule:nonzero}
   
  </style></defs><g><path class="fil0" d="M91 131l8 -6c6,-4 8,-12 5,-19l-22 -62c-2,-7 -7,-11 -14,-12 -35,-4 -73,18 -67,56 16,99 139,223 239,239 37,6 59,-33 55,-68 -1,-7 -5,-12 -11,-14l-63 -22c-7,-3 -15,0 -19,5l-6 8c-6,7 -16,9 -23,4 -33,-22 -63,-53 -86,-86 -5,-7 -3,-17 4,-23z"/><path class="fil1" d="M163 22c-6,0 -11,-5 -11,-11 0,-6 5,-11 11,-11 90,0 164,74 164,164 0,6 -5,11 -11,11 -6,0 -11,-5 -11,-11 0,-78 -64,-142 -142,-142z"/><path class="fil1" d="M163 62c-6,0 -11,-5 -11,-11 0,-6 5,-11 11,-11 69,0 125,56 125,124 0,6 -5,11 -11,11 -6,0 -11,-5 -11,-11 0,-56 -46,-102 -103,-102z"/><path class="fil1" d="M163 101c-6,0 -11,-5 -11,-11 0,-6 5,-11 11,-11 47,0 85,38 85,85 0,6 -5,11 -11,11 -6,0 -11,-5 -11,-11 0,-35 -28,-63 -63,-63z"/></g><text x="0" y="342" fill="#000000" font-size="5px" font-weight="bold" font-family="'Helvetica Neue', Helvetica, Arial-Unicode, Arial, Sans-serif">Created by Malikov</text><text x="0" y="347" fill="#000000" font-size="5px" font-weight="bold" font-family="'Helvetica Neue', Helvetica, Arial-Unicode, Arial, Sans-serif">from the Noun Project</text></svg>