<svg xmlns="http://www.w3.org/2000/svg" viewBox="0 0 64 80" x="0px" y="0px"><g data-name="13-bin"><path d="M58.757,12.03A4,4,0,0,0,54.877,9H9.123a4,4,0,0,0-3.88,3.03L4,17H60Z"/><path d="M41.379,2.515A2,2,0,0,0,39.438,1H24.562a2,2,0,0,0-1.941,1.515L21,7H43Z"/><path d="M13,63H51l4-44H9ZM43.006,28.847a2,2,0,1,1,3.988.306l-2,26A2,2,0,0,1,43,57c-.051,0-.1,0-.155-.006a2,2,0,0,1-1.841-2.147ZM30,29a2,2,0,0,1,4,0V55a2,2,0,0,1-4,0ZM18.847,27.006a1.994,1.994,0,0,1,2.147,1.841l2,26a2,2,0,0,1-1.841,2.147C21.1,57,21.049,57,21,57a2,2,0,0,1-1.992-1.847l-2-26A2,2,0,0,1,18.847,27.006Z"/></g><text x="0" y="79" fill="#000000" font-size="5px" font-weight="bold" font-family="'Helvetica Neue', Helvetica, Arial-Unicode, Arial, Sans-serif">Created by tulpahn</text><text x="0" y="84" fill="#000000" font-size="5px" font-weight="bold" font-family="'Helvetica Neue', Helvetica, Arial-Unicode, Arial, Sans-serif">from the Noun Project</text></svg>